<svg width="256" height="256" viewBox="0 0 256 256" fill="none" xmlns="http://www.w3.org/2000/svg">
    <path d="M120.88 0.22C113.84 0.22 96.61 1.87 87.27 5.25C68.71 11.92 51.79 23.99 39.54 39.9C22.6 61.78 12.7 89.34 12.7 128.01C12.7 166.68 22.6 194.24 39.54 216.12C51.79 232.03 68.71 244.1 87.27 250.77C96.61 254.15 113.84 255.8 120.88 255.8C120.88 255.8 136.12 255.8 144.73 252.37C162.86 245.43 178.62 233.05 189.77 216.7C204.44 194.63 213.38 167.69 213.38 128.01C213.38 88.33 204.44 61.39 189.77 39.32C178.62 22.97 162.86 10.59 144.73 3.65C136.12 0.22 120.88 0.22 120.88 0.22ZM144.62 193.03C144.62 193.03 133.5 193.03 124.62 193.03C124.62 193.03 114.62 193.03 114.62 170.28C114.62 147.53 114.62 106.98 114.62 106.98C114.62 106.98 123.12 106.98 132.12 106.98C133.5 106.98 145.12 115.28 151.62 128.28C158.12 141.28 158.12 155.53 158.12 166.28C158.12 177.03 152.62 191.28 144.62 193.03ZM90.12 189.03C90.12 189.03 77.62 189.03 69.12 189.03C69.12 189.03 58.62 189.03 58.62 166.28C58.62 143.53 58.62 102.98 58.62 102.98C58.62 102.98 66.12 102.98 75.12 102.98C76.5 102.98 90.12 110.78 97.12 123.78C104.12 136.78 104.12 151.03 104.12 161.78C104.12 172.53 98.62 186.78 90.12 189.03ZM143.62 160.03L163.62 130.03C163.62 130.03 171.12 121.03 179.12 121.03C181.12 121.03 191.12 121.03 191.12 143.78C191.12 166.53 191.12 207.03 191.12 207.03C191.12 207.03 182.62 207.03 172.62 207.03C170.12 207.03 157.12 198.03 150.62 185.03C144.12 172.03 143.62 160.03 143.62 160.03ZM195.12 74.53C193.44 74.53 191.12 74.28 191.12 76.03C191.12 78.53 191.12 87.78 191.12 87.78C191.12 87.78 179.12 87.78 179.12 87.78C179.12 87.78 179.12 79.53 179.12 74.53C179.12 69.53 182.12 64.53 189.12 64.53C195.12 64.53 198.62 69.53 198.62 74.53C198.62 79.53 198.62 87.78 198.62 87.78H205.12C205.12 87.78 204.62 79.53 204.62 74.53C204.62 69.53 200.12 64.53 195.12 64.53C190.12 64.53 186.12 69.53 186.12 74.53C186.12 79.53 186.12 87.78 186.12 87.78H195.12C195.12 87.78 195.12 79.53 195.12 74.53ZM153.12 51.03L163.62 57.53C163.62 57.53 160.12 64.53 156.12 64.53C152.12 64.53 147.62 57.53 147.62 57.53L153.12 51.03Z" fill="#339933"/>
</svg>
